<svg xmlns="http://www.w3.org/2000/svg" width="204" height="30.167" viewBox="0 0 1266.476 139.511">                            <g id="Grupo_3" data-name="Grupo 3" transform="translate(-109.658 -97.931)">                              <g id="Grupo_1" data-name="Grupo 1">                                <path id="Caminho_1" data-name="Caminho 1" d="M169.239,197.952v39.49L211.632,217.7Z" fill="#880b2d"/>                                <path id="Caminho_2" data-name="Caminho 2" d="M152.02,150.81l32.336-15.051v30.106Z" fill="#880b2d"/>                                <path id="Caminho_3" data-name="Caminho 3" d="M242.685,147.131l48.383,23.381-48.362,22.519v39.134l73.455-34.213v39.49l59.591-28.073V131.091l-71.9-33.16-61.17,28.653Zm58.364,18.734v-30.1l32.326,15.049Z" fill="#880b2d"/>                                <path id="Caminho_4" data-name="Caminho 4" d="M242.718,126.584,181.552,97.931l-71.894,33.16v78.278l59.581,28.073v-39.49l73.469,34.213V193.031l-48.372-22.519,48.382-23.381Zm-90.7,24.226,32.336-15.051v30.106Z" fill="#b7043a"/>                                <path id="Caminho_5" data-name="Caminho 5" d="M316.161,197.952v39.49L273.771,217.7Z" fill="#b7043a"/>                                <path id="Caminho_6" data-name="Caminho 6" d="M333.375,150.81l-32.326-15.051v30.106Z" fill="#b7043a"/>                              </g>                              <g id="Grupo_2" data-name="Grupo 2">                                <path id="Caminho_7" data-name="Caminho 7" d="M520.163,181.9l-30.155-56.043-27.642,77.536h13.856l16.3-45.408,27.635,51.641,27.626-51.564,16.166,45.331h13.986l-27.633-77.65Z" fill="#fff"/>                                <path id="Caminho_8" data-name="Caminho 8" d="M707.448,167.023a29.654,29.654,0,0,0-7.4-4.311,15.155,15.155,0,0,0,3.623-10.09,16.52,16.52,0,0,0-8.266-14.529c-4.629-2.88-10.726-4.338-18.143-4.338H652.025V203.4h31.141c8.325,0,15.55-1.9,21.449-5.611,6.438-4,9.827-9.663,9.827-16.346a18.2,18.2,0,0,0-6.994-14.415m-24.153,24.442H665.257v-19.98h18.038c5.406,0,9.874,1.067,13.318,3.207,4.12,2.417,4.593,5.015,4.593,6.746,0,1.854-.52,4.275-4.52,6.719a25.375,25.375,0,0,1-13.391,3.308m4.286-34.259a16.366,16.366,0,0,1-9.233,2.371H665.257v-13.91H677.6a18.462,18.462,0,0,1,9.918,2.493c1.976,1.186,2.819,2.517,2.819,4.462a5.189,5.189,0,0,1-2.756,4.584" fill="#fff"/>                                <path id="Caminho_9" data-name="Caminho 9" d="M785.922,194.6l8.437,10.925,11.18-20.493h34.27l11.072,20.493,8.548-10.966-36.813-67.324Zm26.136-21.475,10.558-19.433L833.2,173.125Z" fill="#fff"/>                                <path id="Caminho_10" data-name="Caminho 10" d="M951.159,147.484a18.849,18.849,0,0,1,9.693-2.235,23.66,23.66,0,0,1,9.411,1.571,10.714,10.714,0,0,1,4.2,3.072l1.824,2.08,13.12-4.089-3.745-4.788c-4.991-6.415-13.348-9.663-24.81-9.663-6.908,0-12.85,1.517-17.638,4.525-5.52,3.344-8.435,8.121-8.435,13.8s2.844,10.449,8.216,13.76c2.881,1.831,7.8,3.835,15.024,6.115,3.739,1.191,6.572,2.172,8.666,3a26.955,26.955,0,0,1,4.507,2.126c3.97,2.485,4.423,4.952,4.423,6.569a6.582,6.582,0,0,1-3.417,6.179c-2.9,1.767-7.08,2.657-12.432,2.657-12.039,0-15.253-4.733-16.625-8.331l-1.374-3.4-13.316,3.221,1.958,4.582c4.482,10.5,14.354,15.826,29.357,15.826a50.678,50.678,0,0,0,12.2-1.327c14.062-3.753,17.018-12.63,17.018-19.408,0-6.278-2.956-11.53-8.786-15.6a41.249,41.249,0,0,0-7.424-4c-2.855-1.2-6.271-2.453-10.156-3.7-7.416-2.358-10.247-3.694-11.183-4.2-3.3-2.008-3.3-3.561-3.3-4.07,0-1.154.346-2.679,3.019-4.275" fill="#fff"/>                                <path id="Caminho_11" data-name="Caminho 11" d="M1049.662,145.667h26.749v57.728h13.341V145.667h26.818l13.418-11.912h-93.525Z" fill="#fff"/>                                <path id="Caminho_12" data-name="Caminho 12" d="M1251.563,142.409c-9.038-6.3-20.616-9.495-34.4-9.495-13.873,0-25.467,3.226-34.464,9.6-9.341,6.642-14.072,15.406-14.072,26.05,0,10.672,4.772,19.471,14.2,26.154,8.872,6.333,20.423,9.536,34.339,9.536,13.856,0,25.45-3.244,34.408-9.613,9.464-6.626,14.243-15.4,14.243-26.077,0-10.644-4.779-19.444-14.252-26.159m-34.4,49.924c-10.588,0-19.349-2.408-25.991-7.11-6.295-4.473-9.225-9.75-9.225-16.655,0-6.869,2.98-12.185,9.368-16.709,6.658-4.737,15.342-7.124,25.848-7.124,10.644,0,19.419,2.387,26.056,7.124,6.317,4.461,9.25,9.776,9.25,16.709,0,7-2.933,12.343-9.193,16.805-6.662,4.615-15.455,6.96-26.113,6.96" fill="#fff"/>                                <path id="Caminho_13" data-name="Caminho 13" d="M1366.939,167.737a39.413,39.413,0,0,0-7.419-4.012c-2.835-1.2-6.252-2.444-10.149-3.7-7.433-2.353-10.238-3.671-11.172-4.2-3.327-2.017-3.327-3.561-3.327-4.07,0-1.154.349-2.672,3.036-4.275a18.825,18.825,0,0,1,9.693-2.235,23.549,23.549,0,0,1,9.39,1.571,10.776,10.776,0,0,1,4.207,3.037l1.8,2.115,13.139-4.079-3.71-4.8c-5.02-6.421-13.374-9.663-24.823-9.663-6.9,0-12.845,1.517-17.638,4.511-5.5,3.348-8.423,8.119-8.423,13.816s2.853,10.453,8.2,13.756c2.862,1.831,7.768,3.83,15.039,6.119,3.755,1.193,6.588,2.181,8.644,3a26.549,26.549,0,0,1,4.5,2.126c3.973,2.494,4.441,4.952,4.441,6.569a6.61,6.61,0,0,1-3.446,6.192c-2.864,1.754-7.025,2.644-12.414,2.644-12.045,0-15.26-4.733-16.616-8.295l-1.315-3.444-13.347,3.23,1.935,4.582c4.475,10.5,14.333,15.826,29.343,15.826a50.751,50.751,0,0,0,12.208-1.327c14.063-3.753,17.027-12.63,17.027-19.408,0-6.292-2.98-11.544-8.8-15.591" fill="#fff"/>                              </g>                            </g>                          </svg>